<mxfile host="app.diagrams.net" modified="2022-04-05T00:33:51.549Z" agent="5.0 (X11; Linux x86_64) AppleWebKit/537.36 (KHTML, like Gecko) Chrome/100.0.4896.60 Safari/537.36" etag="p93wKLGo5-oE28EQFmXV" version="17.4.0" type="github" pages="3">
  <diagram name="Page-1" id="c9db0220-8083-56f3-ca83-edcdcd058819">
    <mxGraphModel dx="1354" dy="773" grid="1" gridSize="10" guides="1" tooltips="1" connect="1" arrows="1" fold="1" page="1" pageScale="1.5" pageWidth="826" pageHeight="1169" background="#ffffff" math="0" shadow="0">
      <root>
        <mxCell id="0" style=";html=1;" />
        <mxCell id="1" style=";html=1;" parent="0" />
        <mxCell id="3_X5aHVeMTJVdO-MlE5Y-4" value="" style="rounded=1;whiteSpace=wrap;html=1;" parent="1" vertex="1">
          <mxGeometry x="210" y="340" width="820" height="440" as="geometry" />
        </mxCell>
        <mxCell id="3_X5aHVeMTJVdO-MlE5Y-6" value="&lt;font style=&quot;font-size: 18px&quot;&gt;扫描二维码登录&lt;/font&gt;" style="text;html=1;strokeColor=none;fillColor=none;align=center;verticalAlign=middle;whiteSpace=wrap;rounded=0;" parent="1" vertex="1">
          <mxGeometry x="320" y="400" width="160" height="30" as="geometry" />
        </mxCell>
        <mxCell id="3_X5aHVeMTJVdO-MlE5Y-7" value="二维码" style="whiteSpace=wrap;html=1;aspect=fixed;rounded=0;fontSize=18;glass=0;shadow=0;" parent="1" vertex="1">
          <mxGeometry x="310" y="450" width="170" height="170" as="geometry" />
        </mxCell>
        <mxCell id="3_X5aHVeMTJVdO-MlE5Y-8" value="&lt;font style=&quot;font-size: 12px&quot;&gt;请使用客户端扫码登录或扫码下载APP&lt;/font&gt;" style="text;html=1;strokeColor=none;fillColor=none;align=center;verticalAlign=middle;whiteSpace=wrap;rounded=0;shadow=0;glass=0;fontSize=18;" parent="1" vertex="1">
          <mxGeometry x="320" y="630" width="160" height="60" as="geometry" />
        </mxCell>
        <mxCell id="3_X5aHVeMTJVdO-MlE5Y-9" value="" style="line;strokeWidth=2;direction=south;html=1;rounded=0;shadow=0;glass=0;fontSize=12;fillColor=#f5f5f5;gradientColor=#b3b3b3;strokeColor=#666666;" parent="1" vertex="1">
          <mxGeometry x="530" y="450" width="10" height="220" as="geometry" />
        </mxCell>
        <mxCell id="3_X5aHVeMTJVdO-MlE5Y-10" value="&lt;font style=&quot;font-size: 18px&quot;&gt;&lt;font style=&quot;font-size: 18px&quot;&gt;密码&lt;/font&gt;登录&lt;/font&gt;" style="text;html=1;strokeColor=none;fillColor=none;align=center;verticalAlign=middle;whiteSpace=wrap;rounded=0;shadow=0;glass=0;fontSize=12;" parent="1" vertex="1">
          <mxGeometry x="660" y="400" width="90" height="30" as="geometry" />
        </mxCell>
        <mxCell id="3_X5aHVeMTJVdO-MlE5Y-11" value="&lt;span style=&quot;font-size: 18px&quot;&gt;&lt;font color=&quot;#3399ff&quot;&gt;短信登录&lt;/font&gt;&lt;/span&gt;" style="text;html=1;strokeColor=none;fillColor=none;align=center;verticalAlign=middle;whiteSpace=wrap;rounded=0;shadow=0;glass=0;fontSize=12;" parent="1" vertex="1">
          <mxGeometry x="800" y="400" width="80" height="30" as="geometry" />
        </mxCell>
        <mxCell id="3_X5aHVeMTJVdO-MlE5Y-12" value="" style="rounded=1;whiteSpace=wrap;html=1;shadow=0;glass=0;fontSize=12;" parent="1" vertex="1">
          <mxGeometry x="600" y="450" width="340" height="110" as="geometry" />
        </mxCell>
        <mxCell id="3_X5aHVeMTJVdO-MlE5Y-15" value="" style="line;strokeWidth=2;direction=south;html=1;rounded=0;shadow=0;glass=0;fontSize=18;fillColor=#f5f5f5;gradientColor=#b3b3b3;strokeColor=#666666;" parent="1" vertex="1">
          <mxGeometry x="762.5" y="405" width="15" height="20" as="geometry" />
        </mxCell>
        <mxCell id="3_X5aHVeMTJVdO-MlE5Y-16" value="" style="line;strokeWidth=1;html=1;perimeter=backbonePerimeter;points=[];outlineConnect=0;rounded=0;shadow=0;glass=0;fontSize=18;" parent="1" vertex="1">
          <mxGeometry x="600" y="500" width="340" height="10" as="geometry" />
        </mxCell>
        <mxCell id="3_X5aHVeMTJVdO-MlE5Y-17" value="&lt;span style=&quot;font-size: 14px&quot;&gt;+86&lt;/span&gt;" style="text;html=1;strokeColor=none;fillColor=none;align=center;verticalAlign=middle;whiteSpace=wrap;rounded=0;shadow=0;glass=0;fontSize=18;" parent="1" vertex="1">
          <mxGeometry x="610" y="460" width="60" height="30" as="geometry" />
        </mxCell>
        <mxCell id="3_X5aHVeMTJVdO-MlE5Y-18" value="&lt;span style=&quot;font-size: 14px&quot;&gt;验证码&lt;/span&gt;" style="text;html=1;strokeColor=none;fillColor=none;align=center;verticalAlign=middle;whiteSpace=wrap;rounded=0;shadow=0;glass=0;fontSize=18;" parent="1" vertex="1">
          <mxGeometry x="610" y="520" width="60" height="30" as="geometry" />
        </mxCell>
        <mxCell id="3_X5aHVeMTJVdO-MlE5Y-22" value="&lt;span style=&quot;font-size: 14px&quot;&gt;&lt;font color=&quot;#e1d5e7&quot;&gt;请输入手机号&lt;/font&gt;&lt;/span&gt;" style="text;html=1;strokeColor=none;fillColor=none;align=center;verticalAlign=middle;whiteSpace=wrap;rounded=0;shadow=0;glass=0;fontSize=18;" parent="1" vertex="1">
          <mxGeometry x="672.5" y="460" width="90" height="30" as="geometry" />
        </mxCell>
        <mxCell id="3_X5aHVeMTJVdO-MlE5Y-24" value="&lt;span style=&quot;font-size: 14px&quot;&gt;&lt;font color=&quot;#e1d5e7&quot;&gt;请输入验证码&lt;/font&gt;&lt;/span&gt;" style="text;html=1;strokeColor=none;fillColor=none;align=center;verticalAlign=middle;whiteSpace=wrap;rounded=0;shadow=0;glass=0;fontSize=18;" parent="1" vertex="1">
          <mxGeometry x="672.5" y="520" width="90" height="30" as="geometry" />
        </mxCell>
        <mxCell id="3_X5aHVeMTJVdO-MlE5Y-25" value="&lt;font color=&quot;#3399ff&quot;&gt;&lt;span style=&quot;font-size: 8px&quot;&gt;获取验证码&lt;/span&gt;&lt;/font&gt;" style="text;html=1;strokeColor=none;fillColor=none;align=center;verticalAlign=middle;whiteSpace=wrap;rounded=0;shadow=0;glass=0;fontSize=14;fontColor=#E1D5E7;" parent="1" vertex="1">
          <mxGeometry x="863.75" y="460" width="70" height="30" as="geometry" />
        </mxCell>
        <mxCell id="3_X5aHVeMTJVdO-MlE5Y-27" value="&lt;span style=&quot;font-size: 14px&quot;&gt;&lt;font color=&quot;#ffffff&quot;&gt;登录 / 注册&lt;/font&gt;&lt;/span&gt;" style="rounded=1;whiteSpace=wrap;html=1;shadow=0;glass=0;fontSize=8;strokeWidth=1;fillColor=#3399FF;" parent="1" vertex="1">
          <mxGeometry x="688.75" y="580" width="162.5" height="40" as="geometry" />
        </mxCell>
        <mxCell id="3_X5aHVeMTJVdO-MlE5Y-28" value="&lt;font color=&quot;#e1d5e7&quot; style=&quot;font-size: 13px&quot;&gt;其他方式登录&lt;/font&gt;" style="text;html=1;strokeColor=none;fillColor=none;align=center;verticalAlign=middle;whiteSpace=wrap;rounded=0;shadow=0;glass=0;labelBackgroundColor=none;fontSize=14;fontColor=#FFFFFF;" parent="1" vertex="1">
          <mxGeometry x="705" y="640" width="130" height="30" as="geometry" />
        </mxCell>
        <mxCell id="3_X5aHVeMTJVdO-MlE5Y-29" value="&lt;span style=&quot;color: rgb(153 , 153 , 153) ; font-family: , &amp;#34;blinkmacsystemfont&amp;#34; , &amp;#34;helvetica neue&amp;#34; , &amp;#34;helvetica&amp;#34; , &amp;#34;arial&amp;#34; , &amp;#34;pingfang sc&amp;#34; , &amp;#34;hiragino sans gb&amp;#34; , &amp;#34;microsoft yahei&amp;#34; , sans-serif ; font-size: 12px ; background-color: rgb(255 , 255 , 255)&quot;&gt;登录或完成注册即代表你同意&amp;nbsp;&lt;/span&gt;&lt;a target=&quot;_blank&quot; href=&quot;https://www.bilibili.com/protocal/licence.html&quot; style=&quot;box-sizing: border-box ; padding: 0px ; margin: 0px ; font-family: , &amp;#34;blinkmacsystemfont&amp;#34; , &amp;#34;helvetica neue&amp;#34; , &amp;#34;helvetica&amp;#34; , &amp;#34;arial&amp;#34; , &amp;#34;pingfang sc&amp;#34; , &amp;#34;hiragino sans gb&amp;#34; , &amp;#34;microsoft yahei&amp;#34; , sans-serif ; border: none ; font-size: 12px ; line-height: 1.25 ; color: rgb(0 , 161 , 214) ; background-color: rgb(255 , 255 , 255)&quot;&gt;用户协议&amp;nbsp;&lt;/a&gt;&lt;span style=&quot;color: rgb(153 , 153 , 153) ; font-family: , &amp;#34;blinkmacsystemfont&amp;#34; , &amp;#34;helvetica neue&amp;#34; , &amp;#34;helvetica&amp;#34; , &amp;#34;arial&amp;#34; , &amp;#34;pingfang sc&amp;#34; , &amp;#34;hiragino sans gb&amp;#34; , &amp;#34;microsoft yahei&amp;#34; , sans-serif ; font-size: 12px ; background-color: rgb(255 , 255 , 255)&quot;&gt;和&amp;nbsp;&lt;/span&gt;&lt;a target=&quot;_blank&quot; href=&quot;https://www.bilibili.com/blackboard/privacy-pc.html&quot; style=&quot;box-sizing: border-box ; padding: 0px ; margin: 0px ; font-family: , &amp;#34;blinkmacsystemfont&amp;#34; , &amp;#34;helvetica neue&amp;#34; , &amp;#34;helvetica&amp;#34; , &amp;#34;arial&amp;#34; , &amp;#34;pingfang sc&amp;#34; , &amp;#34;hiragino sans gb&amp;#34; , &amp;#34;microsoft yahei&amp;#34; , sans-serif ; border: none ; font-size: 12px ; line-height: 1.25 ; color: rgb(0 , 161 , 214) ; background-color: rgb(255 , 255 , 255)&quot;&gt;隐私政策&lt;/a&gt;" style="text;html=1;strokeColor=none;fillColor=none;align=center;verticalAlign=middle;whiteSpace=wrap;rounded=0;shadow=0;glass=0;labelBackgroundColor=none;fontSize=13;fontColor=#E1D5E7;" parent="1" vertex="1">
          <mxGeometry x="435" y="720" width="370" height="30" as="geometry" />
        </mxCell>
        <mxCell id="v0r5zREWvbYEj0UTS5Nt-1" value="" style="line;strokeWidth=1;direction=south;html=1;rounded=0;shadow=0;glass=0;labelBackgroundColor=none;fontSize=13;fontColor=#3399FF;fillColor=#3399FF;" parent="1" vertex="1">
          <mxGeometry x="850" y="460" width="10" height="30" as="geometry" />
        </mxCell>
      </root>
    </mxGraphModel>
  </diagram>
  <diagram id="xxaagswxbJHSh05yr0Ho" name="Page-2">
    <mxGraphModel dx="1354" dy="773" grid="1" gridSize="10" guides="1" tooltips="1" connect="1" arrows="1" fold="1" page="1" pageScale="1" pageWidth="827" pageHeight="1169" math="0" shadow="0">
      <root>
        <mxCell id="0" />
        <mxCell id="1" parent="0" />
        <mxCell id="UGeb3EVdXzA3CZJxLC6R-1" value="" style="rounded=1;whiteSpace=wrap;html=1;" parent="1" vertex="1">
          <mxGeometry x="414" y="180" width="820" height="440" as="geometry" />
        </mxCell>
        <mxCell id="UGeb3EVdXzA3CZJxLC6R-2" value="&lt;font style=&quot;font-size: 18px&quot;&gt;扫描二维码登录&lt;/font&gt;" style="text;html=1;strokeColor=none;fillColor=none;align=center;verticalAlign=middle;whiteSpace=wrap;rounded=0;" parent="1" vertex="1">
          <mxGeometry x="524" y="240" width="160" height="30" as="geometry" />
        </mxCell>
        <mxCell id="UGeb3EVdXzA3CZJxLC6R-3" value="二维码" style="whiteSpace=wrap;html=1;aspect=fixed;rounded=0;fontSize=18;glass=0;shadow=0;" parent="1" vertex="1">
          <mxGeometry x="514" y="290" width="170" height="170" as="geometry" />
        </mxCell>
        <mxCell id="UGeb3EVdXzA3CZJxLC6R-4" value="&lt;font style=&quot;font-size: 12px&quot;&gt;请使用客户端扫码登录或扫码下载APP&lt;/font&gt;" style="text;html=1;strokeColor=none;fillColor=none;align=center;verticalAlign=middle;whiteSpace=wrap;rounded=0;shadow=0;glass=0;fontSize=18;" parent="1" vertex="1">
          <mxGeometry x="524" y="470" width="160" height="60" as="geometry" />
        </mxCell>
        <mxCell id="UGeb3EVdXzA3CZJxLC6R-5" value="" style="line;strokeWidth=2;direction=south;html=1;rounded=0;shadow=0;glass=0;fontSize=12;fillColor=#f5f5f5;gradientColor=#b3b3b3;strokeColor=#666666;" parent="1" vertex="1">
          <mxGeometry x="734" y="290" width="10" height="220" as="geometry" />
        </mxCell>
        <mxCell id="UGeb3EVdXzA3CZJxLC6R-6" value="&lt;font style=&quot;font-size: 18px&quot; color=&quot;#3399ff&quot;&gt;&lt;font style=&quot;font-size: 18px&quot;&gt;密码&lt;/font&gt;登录&lt;/font&gt;" style="text;html=1;strokeColor=none;fillColor=none;align=center;verticalAlign=middle;whiteSpace=wrap;rounded=0;shadow=0;glass=0;fontSize=12;" parent="1" vertex="1">
          <mxGeometry x="864" y="240" width="90" height="30" as="geometry" />
        </mxCell>
        <mxCell id="UGeb3EVdXzA3CZJxLC6R-7" value="&lt;span style=&quot;font-size: 18px&quot;&gt;短信登录&lt;/span&gt;" style="text;html=1;strokeColor=none;fillColor=none;align=center;verticalAlign=middle;whiteSpace=wrap;rounded=0;shadow=0;glass=0;fontSize=12;" parent="1" vertex="1">
          <mxGeometry x="1004" y="240" width="80" height="30" as="geometry" />
        </mxCell>
        <mxCell id="UGeb3EVdXzA3CZJxLC6R-8" value="" style="rounded=1;whiteSpace=wrap;html=1;shadow=0;glass=0;fontSize=12;" parent="1" vertex="1">
          <mxGeometry x="804" y="290" width="340" height="110" as="geometry" />
        </mxCell>
        <mxCell id="UGeb3EVdXzA3CZJxLC6R-9" value="" style="line;strokeWidth=2;direction=south;html=1;rounded=0;shadow=0;glass=0;fontSize=18;fillColor=#f5f5f5;gradientColor=#b3b3b3;strokeColor=#666666;" parent="1" vertex="1">
          <mxGeometry x="966.5" y="245" width="15" height="20" as="geometry" />
        </mxCell>
        <mxCell id="UGeb3EVdXzA3CZJxLC6R-10" value="" style="line;strokeWidth=1;html=1;perimeter=backbonePerimeter;points=[];outlineConnect=0;rounded=0;shadow=0;glass=0;fontSize=18;" parent="1" vertex="1">
          <mxGeometry x="804" y="340" width="340" height="10" as="geometry" />
        </mxCell>
        <mxCell id="UGeb3EVdXzA3CZJxLC6R-11" value="&lt;font style=&quot;font-size: 14px&quot;&gt;账号&lt;/font&gt;" style="text;html=1;strokeColor=none;fillColor=none;align=center;verticalAlign=middle;whiteSpace=wrap;rounded=0;shadow=0;glass=0;fontSize=18;" parent="1" vertex="1">
          <mxGeometry x="814" y="300" width="60" height="30" as="geometry" />
        </mxCell>
        <mxCell id="UGeb3EVdXzA3CZJxLC6R-12" value="&lt;span style=&quot;font-size: 14px&quot;&gt;密码&lt;/span&gt;" style="text;html=1;strokeColor=none;fillColor=none;align=center;verticalAlign=middle;whiteSpace=wrap;rounded=0;shadow=0;glass=0;fontSize=18;" parent="1" vertex="1">
          <mxGeometry x="814" y="360" width="60" height="30" as="geometry" />
        </mxCell>
        <mxCell id="UGeb3EVdXzA3CZJxLC6R-13" value="&lt;span style=&quot;font-size: 14px&quot;&gt;&lt;font color=&quot;#e1d5e7&quot;&gt;请输入账号&lt;/font&gt;&lt;/span&gt;" style="text;html=1;strokeColor=none;fillColor=none;align=center;verticalAlign=middle;whiteSpace=wrap;rounded=0;shadow=0;glass=0;fontSize=18;" parent="1" vertex="1">
          <mxGeometry x="864" y="300" width="90" height="30" as="geometry" />
        </mxCell>
        <mxCell id="UGeb3EVdXzA3CZJxLC6R-14" value="&lt;span style=&quot;font-size: 14px&quot;&gt;&lt;font color=&quot;#e1d5e7&quot;&gt;请输入密码&lt;/font&gt;&lt;/span&gt;" style="text;html=1;strokeColor=none;fillColor=none;align=center;verticalAlign=middle;whiteSpace=wrap;rounded=0;shadow=0;glass=0;fontSize=18;" parent="1" vertex="1">
          <mxGeometry x="864" y="360" width="90" height="30" as="geometry" />
        </mxCell>
        <mxCell id="UGeb3EVdXzA3CZJxLC6R-15" value="&lt;font style=&quot;font-size: 8px&quot; color=&quot;#3399ff&quot;&gt;忘记密码？&lt;/font&gt;" style="text;html=1;strokeColor=none;fillColor=none;align=center;verticalAlign=middle;whiteSpace=wrap;rounded=0;shadow=0;glass=0;fontSize=14;fontColor=#E1D5E7;" parent="1" vertex="1">
          <mxGeometry x="1064" y="360" width="70" height="30" as="geometry" />
        </mxCell>
        <mxCell id="UGeb3EVdXzA3CZJxLC6R-16" value="&lt;font style=&quot;font-size: 14px&quot; color=&quot;#000000&quot;&gt;注册&lt;/font&gt;" style="rounded=1;whiteSpace=wrap;html=1;shadow=0;glass=0;fontSize=8;fontColor=#3399FF;strokeWidth=1;" parent="1" vertex="1">
          <mxGeometry x="804" y="420" width="160" height="40" as="geometry" />
        </mxCell>
        <mxCell id="UGeb3EVdXzA3CZJxLC6R-17" value="&lt;span style=&quot;font-size: 14px&quot;&gt;&lt;font color=&quot;#ffffff&quot;&gt;登录&lt;/font&gt;&lt;/span&gt;" style="rounded=1;whiteSpace=wrap;html=1;shadow=0;glass=0;fontSize=8;strokeWidth=1;fillColor=#3399FF;" parent="1" vertex="1">
          <mxGeometry x="981.5" y="420" width="162.5" height="40" as="geometry" />
        </mxCell>
        <mxCell id="UGeb3EVdXzA3CZJxLC6R-18" value="&lt;font color=&quot;#e1d5e7&quot; style=&quot;font-size: 13px&quot;&gt;其他方式登录&lt;/font&gt;" style="text;html=1;strokeColor=none;fillColor=none;align=center;verticalAlign=middle;whiteSpace=wrap;rounded=0;shadow=0;glass=0;labelBackgroundColor=none;fontSize=14;fontColor=#FFFFFF;" parent="1" vertex="1">
          <mxGeometry x="909" y="480" width="130" height="30" as="geometry" />
        </mxCell>
        <mxCell id="UGeb3EVdXzA3CZJxLC6R-19" value="&lt;span style=&quot;color: rgb(153 , 153 , 153) ; font-family: , &amp;quot;blinkmacsystemfont&amp;quot; , &amp;quot;helvetica neue&amp;quot; , &amp;quot;helvetica&amp;quot; , &amp;quot;arial&amp;quot; , &amp;quot;pingfang sc&amp;quot; , &amp;quot;hiragino sans gb&amp;quot; , &amp;quot;microsoft yahei&amp;quot; , sans-serif ; font-size: 12px ; background-color: rgb(255 , 255 , 255)&quot;&gt;登录或完成注册即代表你同意&amp;nbsp;&lt;/span&gt;&lt;a target=&quot;_blank&quot; href=&quot;https://www.bilibili.com/protocal/licence.html&quot; style=&quot;box-sizing: border-box ; padding: 0px ; margin: 0px ; font-family: , &amp;quot;blinkmacsystemfont&amp;quot; , &amp;quot;helvetica neue&amp;quot; , &amp;quot;helvetica&amp;quot; , &amp;quot;arial&amp;quot; , &amp;quot;pingfang sc&amp;quot; , &amp;quot;hiragino sans gb&amp;quot; , &amp;quot;microsoft yahei&amp;quot; , sans-serif ; border: none ; font-size: 12px ; line-height: 1.25 ; color: rgb(0 , 161 , 214) ; background-color: rgb(255 , 255 , 255)&quot;&gt;用户协议&amp;nbsp;&lt;/a&gt;&lt;span style=&quot;color: rgb(153 , 153 , 153) ; font-family: , &amp;quot;blinkmacsystemfont&amp;quot; , &amp;quot;helvetica neue&amp;quot; , &amp;quot;helvetica&amp;quot; , &amp;quot;arial&amp;quot; , &amp;quot;pingfang sc&amp;quot; , &amp;quot;hiragino sans gb&amp;quot; , &amp;quot;microsoft yahei&amp;quot; , sans-serif ; font-size: 12px ; background-color: rgb(255 , 255 , 255)&quot;&gt;和&amp;nbsp;&lt;/span&gt;&lt;a target=&quot;_blank&quot; href=&quot;https://www.bilibili.com/blackboard/privacy-pc.html&quot; style=&quot;box-sizing: border-box ; padding: 0px ; margin: 0px ; font-family: , &amp;quot;blinkmacsystemfont&amp;quot; , &amp;quot;helvetica neue&amp;quot; , &amp;quot;helvetica&amp;quot; , &amp;quot;arial&amp;quot; , &amp;quot;pingfang sc&amp;quot; , &amp;quot;hiragino sans gb&amp;quot; , &amp;quot;microsoft yahei&amp;quot; , sans-serif ; border: none ; font-size: 12px ; line-height: 1.25 ; color: rgb(0 , 161 , 214) ; background-color: rgb(255 , 255 , 255)&quot;&gt;隐私政策&lt;/a&gt;" style="text;html=1;strokeColor=none;fillColor=none;align=center;verticalAlign=middle;whiteSpace=wrap;rounded=0;shadow=0;glass=0;labelBackgroundColor=none;fontSize=13;fontColor=#E1D5E7;" parent="1" vertex="1">
          <mxGeometry x="639" y="560" width="370" height="30" as="geometry" />
        </mxCell>
      </root>
    </mxGraphModel>
  </diagram>
  <diagram id="o1uhKUgc9LCfMopXR9b6" name="Page-3">
    <mxGraphModel dx="1354" dy="773" grid="1" gridSize="10" guides="1" tooltips="1" connect="1" arrows="1" fold="1" page="1" pageScale="1" pageWidth="827" pageHeight="1169" math="0" shadow="0">
      <root>
        <mxCell id="0" />
        <mxCell id="1" parent="0" />
        <mxCell id="zX5A5PdcEznX6tp9nzLd-1" value="App" style="rounded=1;whiteSpace=wrap;html=1;" vertex="1" parent="1">
          <mxGeometry x="200" y="50" width="350" height="60" as="geometry" />
        </mxCell>
        <mxCell id="zX5A5PdcEznX6tp9nzLd-2" value="" style="rounded=1;whiteSpace=wrap;html=1;" vertex="1" parent="1">
          <mxGeometry x="200" y="150" width="360" height="190" as="geometry" />
        </mxCell>
        <mxCell id="zX5A5PdcEznX6tp9nzLd-3" value="" style="shape=singleArrow;direction=south;whiteSpace=wrap;html=1;" vertex="1" parent="1">
          <mxGeometry x="345" y="110" width="60" height="40" as="geometry" />
        </mxCell>
        <mxCell id="zX5A5PdcEznX6tp9nzLd-4" value="QrCode" style="shape=ext;double=1;rounded=1;whiteSpace=wrap;html=1;" vertex="1" parent="1">
          <mxGeometry x="40" y="430" width="120" height="80" as="geometry" />
        </mxCell>
        <mxCell id="zX5A5PdcEznX6tp9nzLd-5" value="PasswordLogin" style="shape=ext;double=1;rounded=1;whiteSpace=wrap;html=1;" vertex="1" parent="1">
          <mxGeometry x="320" y="430" width="120" height="170" as="geometry" />
        </mxCell>
        <mxCell id="zX5A5PdcEznX6tp9nzLd-6" value="PhoneLogin" style="shape=ext;double=1;rounded=1;whiteSpace=wrap;html=1;" vertex="1" parent="1">
          <mxGeometry x="612.5" y="365" width="120" height="180" as="geometry" />
        </mxCell>
        <mxCell id="zX5A5PdcEznX6tp9nzLd-8" value="LoginBox" style="text;html=1;strokeColor=none;fillColor=none;align=center;verticalAlign=middle;whiteSpace=wrap;rounded=0;" vertex="1" parent="1">
          <mxGeometry x="350" y="150" width="60" height="30" as="geometry" />
        </mxCell>
        <mxCell id="zX5A5PdcEznX6tp9nzLd-12" value="" style="rounded=1;whiteSpace=wrap;html=1;" vertex="1" parent="1">
          <mxGeometry x="220" y="180" width="150" height="140" as="geometry" />
        </mxCell>
        <mxCell id="zX5A5PdcEznX6tp9nzLd-14" value="methonds" style="text;html=1;strokeColor=none;fillColor=none;align=center;verticalAlign=middle;whiteSpace=wrap;rounded=0;" vertex="1" parent="1">
          <mxGeometry x="250" y="180" width="60" height="30" as="geometry" />
        </mxCell>
        <mxCell id="zX5A5PdcEznX6tp9nzLd-15" value="changeToPassworldLogin()" style="text;html=1;strokeColor=none;fillColor=none;align=center;verticalAlign=middle;whiteSpace=wrap;rounded=0;" vertex="1" parent="1">
          <mxGeometry x="245" y="230" width="100" height="30" as="geometry" />
        </mxCell>
        <mxCell id="zX5A5PdcEznX6tp9nzLd-17" value="changeToPhoneLogin()" style="text;html=1;strokeColor=none;fillColor=none;align=center;verticalAlign=middle;whiteSpace=wrap;rounded=0;" vertex="1" parent="1">
          <mxGeometry x="232.5" y="250" width="125" height="30" as="geometry" />
        </mxCell>
        <mxCell id="zX5A5PdcEznX6tp9nzLd-24" value="" style="edgeStyle=elbowEdgeStyle;elbow=horizontal;endArrow=classic;html=1;rounded=0;exitX=0.5;exitY=1;exitDx=0;exitDy=0;" edge="1" parent="1" source="zX5A5PdcEznX6tp9nzLd-2" target="zX5A5PdcEznX6tp9nzLd-4">
          <mxGeometry width="50" height="50" relative="1" as="geometry">
            <mxPoint x="390" y="400" as="sourcePoint" />
            <mxPoint x="380" y="350" as="targetPoint" />
            <Array as="points">
              <mxPoint x="270" y="450" />
              <mxPoint x="300" y="370" />
            </Array>
          </mxGeometry>
        </mxCell>
        <mxCell id="zX5A5PdcEznX6tp9nzLd-27" value="" style="edgeStyle=elbowEdgeStyle;elbow=vertical;endArrow=classic;html=1;rounded=0;entryX=0.5;entryY=0;entryDx=0;entryDy=0;startArrow=none;" edge="1" parent="1" source="zX5A5PdcEznX6tp9nzLd-29" target="zX5A5PdcEznX6tp9nzLd-5">
          <mxGeometry width="50" height="50" relative="1" as="geometry">
            <mxPoint x="380" y="340" as="sourcePoint" />
            <mxPoint x="440" y="350" as="targetPoint" />
            <Array as="points">
              <mxPoint x="380" y="420" />
            </Array>
          </mxGeometry>
        </mxCell>
        <mxCell id="zX5A5PdcEznX6tp9nzLd-28" value="&lt;span style=&quot;color: rgb(0, 0, 0); font-family: helvetica; font-size: 12px; font-style: normal; font-weight: 400; letter-spacing: normal; text-align: center; text-indent: 0px; text-transform: none; word-spacing: 0px; background-color: rgb(248, 249, 250); display: inline; float: none;&quot;&gt;methonds&lt;/span&gt;" style="edgeStyle=elbowEdgeStyle;elbow=horizontal;endArrow=classic;html=1;rounded=0;exitX=0.833;exitY=1;exitDx=0;exitDy=0;exitPerimeter=0;" edge="1" parent="1" source="zX5A5PdcEznX6tp9nzLd-2">
          <mxGeometry x="-0.6355" y="-10" width="50" height="50" relative="1" as="geometry">
            <mxPoint x="390" y="350" as="sourcePoint" />
            <mxPoint x="610" y="450" as="targetPoint" />
            <Array as="points">
              <mxPoint x="500" y="400" />
              <mxPoint x="310" y="380" />
            </Array>
            <mxPoint as="offset" />
          </mxGeometry>
        </mxCell>
        <mxCell id="zX5A5PdcEznX6tp9nzLd-29" value="&lt;span style=&quot;color: rgb(0, 0, 0); font-family: helvetica; font-size: 12px; font-style: normal; font-weight: 400; letter-spacing: normal; text-align: center; text-indent: 0px; text-transform: none; word-spacing: 0px; background-color: rgb(248, 249, 250); display: inline; float: none;&quot;&gt;methonds&lt;/span&gt;" style="text;whiteSpace=wrap;html=1;" vertex="1" parent="1">
          <mxGeometry x="350" y="370" width="80" height="30" as="geometry" />
        </mxCell>
        <mxCell id="zX5A5PdcEznX6tp9nzLd-30" value="" style="edgeStyle=elbowEdgeStyle;elbow=vertical;endArrow=none;html=1;rounded=0;entryX=0.388;entryY=0.067;entryDx=0;entryDy=0;entryPerimeter=0;" edge="1" parent="1" target="zX5A5PdcEznX6tp9nzLd-29">
          <mxGeometry width="50" height="50" relative="1" as="geometry">
            <mxPoint x="380" y="340" as="sourcePoint" />
            <mxPoint x="380" y="430" as="targetPoint" />
          </mxGeometry>
        </mxCell>
        <mxCell id="zX5A5PdcEznX6tp9nzLd-39" value="{&lt;br&gt;isPasswordLogin:true&lt;br&gt;,isPhonelogin:false&lt;br&gt;}" style="rounded=1;whiteSpace=wrap;html=1;" vertex="1" parent="1">
          <mxGeometry x="420" y="180" width="120" height="140" as="geometry" />
        </mxCell>
        <mxCell id="zX5A5PdcEznX6tp9nzLd-40" value="states" style="text;html=1;strokeColor=none;fillColor=none;align=center;verticalAlign=middle;whiteSpace=wrap;rounded=0;" vertex="1" parent="1">
          <mxGeometry x="455" y="180" width="60" height="30" as="geometry" />
        </mxCell>
        <mxCell id="zX5A5PdcEznX6tp9nzLd-41" value="changeToPassworldLogin()" style="text;html=1;strokeColor=none;fillColor=none;align=center;verticalAlign=middle;whiteSpace=wrap;rounded=0;" vertex="1" parent="1">
          <mxGeometry x="332.5" y="535" width="100" height="30" as="geometry" />
        </mxCell>
        <mxCell id="zX5A5PdcEznX6tp9nzLd-42" value="changeToPhoneLogin()" style="text;html=1;strokeColor=none;fillColor=none;align=center;verticalAlign=middle;whiteSpace=wrap;rounded=0;" vertex="1" parent="1">
          <mxGeometry x="320" y="555" width="125" height="30" as="geometry" />
        </mxCell>
        <mxCell id="zX5A5PdcEznX6tp9nzLd-43" value="changeToPassworldLogin()" style="text;html=1;strokeColor=none;fillColor=none;align=center;verticalAlign=middle;whiteSpace=wrap;rounded=0;" vertex="1" parent="1">
          <mxGeometry x="625" y="480" width="100" height="30" as="geometry" />
        </mxCell>
        <mxCell id="zX5A5PdcEznX6tp9nzLd-44" value="changeToPhoneLogin()" style="text;html=1;strokeColor=none;fillColor=none;align=center;verticalAlign=middle;whiteSpace=wrap;rounded=0;" vertex="1" parent="1">
          <mxGeometry x="612.5" y="500" width="125" height="30" as="geometry" />
        </mxCell>
        <mxCell id="zX5A5PdcEznX6tp9nzLd-45" value="" style="edgeStyle=elbowEdgeStyle;elbow=horizontal;endArrow=classic;html=1;rounded=0;fontColor=#000000;exitX=1;exitY=0.25;exitDx=0;exitDy=0;entryX=1;entryY=0.25;entryDx=0;entryDy=0;" edge="1" parent="1" source="zX5A5PdcEznX6tp9nzLd-42" target="zX5A5PdcEznX6tp9nzLd-39">
          <mxGeometry width="50" height="50" relative="1" as="geometry">
            <mxPoint x="370" y="640" as="sourcePoint" />
            <mxPoint x="420" y="590" as="targetPoint" />
            <Array as="points">
              <mxPoint x="780" y="640" />
            </Array>
          </mxGeometry>
        </mxCell>
        <mxCell id="zX5A5PdcEznX6tp9nzLd-47" value="" style="edgeStyle=elbowEdgeStyle;elbow=horizontal;endArrow=classic;html=1;rounded=0;fontColor=#000000;entryX=1;entryY=0.5;entryDx=0;entryDy=0;" edge="1" parent="1" target="zX5A5PdcEznX6tp9nzLd-39">
          <mxGeometry width="50" height="50" relative="1" as="geometry">
            <mxPoint x="730" y="520" as="sourcePoint" />
            <mxPoint x="780" y="470" as="targetPoint" />
            <Array as="points">
              <mxPoint x="760" y="390" />
            </Array>
          </mxGeometry>
        </mxCell>
      </root>
    </mxGraphModel>
  </diagram>
</mxfile>
